<svg xmlns="http://www.w3.org/2000/svg" width="27" height="28" viewBox="0 0 27 28" fill="none">
                                                        <path d="M3.375 7.08838H5.625M5.625 7.08838H23.625M5.625 7.08838V22.8384C5.625 23.4351 5.86205 24.0074 6.28401 24.4294C6.70597 24.8513 7.27826 25.0884 7.875 25.0884H19.125C19.7217 25.0884 20.294 24.8513 20.716 24.4294C21.1379 24.0074 21.375 23.4351 21.375 22.8384V7.08838H5.625ZM9 7.08838V4.83838C9 4.24164 9.23705 3.66935 9.65901 3.24739C10.081 2.82543 10.6533 2.58838 11.25 2.58838H15.75C16.3467 2.58838 16.919 2.82543 17.341 3.24739C17.7629 3.66935 18 4.24164 18 4.83838V7.08838M11.25 12.7134V19.4634M15.75 12.7134V19.4634" stroke="#667085" stroke-width="1.66667" stroke-linecap="round" stroke-linejoin="round"></path>
                                                    </svg>